<?xml version="1.0" standalone="no"?>
<!DOCTYPE svg PUBLIC "-//W3C//DTD SVG 1.1//EN" "http://www.w3.org/Graphics/SVG/1.1/DTD/svg11.dtd" >
<svg xmlns="http://www.w3.org/2000/svg">
<metadata></metadata>
<defs>
<font id="psl_displaycsregular" horiz-adv-x="0" >
<font-face units-per-em="2048" ascent="1638" descent="-410" />
<missing-glyph horiz-adv-x="532" />
<glyph unicode="&#xd;" horiz-adv-x="532" />
<glyph unicode=" "  horiz-adv-x="532" />
<glyph unicode="&#x09;" horiz-adv-x="532" />
<glyph unicode="&#xa0;" horiz-adv-x="532" />
<glyph unicode="!" horiz-adv-x="424" d="M145 0h134v127h-134v-127zM145 655l33 -419h68l33 419v314h-134v-314z" />
<glyph unicode="&#x22;" horiz-adv-x="307" d="M41 662h72v292h-72v-292zM197 662h69v292h-69v-292z" />
<glyph unicode="#" horiz-adv-x="655" d="M-18 330h151l-108 -330h77l109 330h123l-109 -330h78l109 330h155l29 76h-158l51 153h154l29 76h-158l111 334h-78l-111 -334h-123l111 334h-78l-110 -334h-150l-29 -76h154l-51 -153h-150zM238 406l51 153h123l-52 -153h-122z" />
<glyph unicode="$" horiz-adv-x="655" d="M29 297q0 -81 16 -138.5t49 -95t82.5 -56t116.5 -21.5v-138h63v138q271 15 271 270q0 115 -80 186q-31 26 -78.5 49.5t-112.5 45.5v342q125 -16 125 -170h121q0 120 -72 188q-64 61 -174 70v133h-63v-133q-109 -9 -178 -72q-76 -69 -76 -186q0 -166 254 -265v-366 q-40 2 -68.5 13.5t-46.5 36.5t-26.5 66t-8.5 103h-114zM158 717q0 139 135 162v-320q-135 46 -135 158zM356 80v340q42 -17 70 -32.5t43 -31.5q41 -39 41 -120q0 -144 -154 -156z" />
<glyph unicode="%" horiz-adv-x="999" d="M51 717q0 -232 182 -232q185 0 185 232q0 231 -182 231q-185 0 -185 -231zM135 713q0 161 98 161q101 0 101 -161q0 -162 -98 -162q-101 0 -101 162zM231 -18h74l463 985h-72zM582 231q0 -231 182 -231q184 0 184 231q0 232 -182 232q-184 0 -184 -232zM666 227 q0 162 98 162q100 0 100 -162q0 -161 -98 -161q-100 0 -100 161z" />
<glyph unicode="&#x26;" horiz-adv-x="889" d="M86 256q0 -62 23 -113t65 -88t100 -57.5t129 -20.5q135 0 238 109l64 -86h137l-133 176q35 63 53 129.5t18 138.5h-102q0 -38 -9.5 -81t-29.5 -93l-201 265l41 24q137 82 137 227q0 41 -16 74.5t-43.5 57.5t-64.5 37.5t-80 13.5q-45 0 -84.5 -15t-68.5 -40.5t-45.5 -60 t-16.5 -73.5q0 -97 63 -178l39 -51q-108 -71 -147 -117q-66 -78 -66 -178zM203 258q0 124 149 221l228 -309q-78 -96 -179 -96q-42 0 -78 14.5t-63 40t-42 58.5t-15 71zM305 776q0 44 29.5 73.5t73.5 29.5q43 0 69.5 -30.5t26.5 -78.5q0 -79 -121 -164q-78 98 -78 170z" />
<glyph unicode="'" horiz-adv-x="307" d="M117 662h73v292h-73v-292z" />
<glyph unicode="(" horiz-adv-x="424" d="M84 344q0 -338 219 -623h70q-170 272 -170 623q0 178 42.5 332t127.5 291h-70q-219 -285 -219 -623z" />
<glyph unicode=")" horiz-adv-x="424" d="M47 -279h70q219 285 219 623t-219 623h-70q85 -137 127.5 -291t42.5 -332q0 -351 -170 -623z" />
<glyph unicode="*" horiz-adv-x="655" d="M115 801l145 -47l-90 -123l59 -43l99 137l100 -137l59 43l-90 123l146 47l-23 71l-153 -51v146h-74v-146l-156 51z" />
<glyph unicode="+" horiz-adv-x="688" d="M41 324h258v-258h90v258h258v90h-258v258h-90v-258h-258v-90z" />
<glyph unicode="," horiz-adv-x="307" d="M74 57q0 -31 21 -52t52 -21q5 0 12 1.5t15 6.5q3 -60 -80 -96l15 -31q27 9 48.5 26t36.5 39.5t23 49t8 53.5q0 45 -23 71.5t-55 26.5q-31 0 -52 -21.5t-21 -52.5z" />
<glyph unicode="-" horiz-adv-x="424" d="M61 324h301v90h-301v-90z" />
<glyph unicode="." horiz-adv-x="307" d="M82 72q0 -29 21.5 -50.5t50.5 -21.5t50 21.5t21 50.5t-21 50t-50 21t-50.5 -21t-21.5 -50z" />
<glyph unicode="/" horiz-adv-x="418" d="M-2 -35h84l340 1002h-84z" />
<glyph unicode="0" horiz-adv-x="696" d="M61 473q0 -493 289 -493q285 0 285 493q0 494 -285 494q-289 0 -289 -494zM186 473q0 224 39 313q34 80 123 80q90 0 123 -80q20 -45 29.5 -122.5t9.5 -190.5q0 -118 -9.5 -196.5t-29.5 -120.5q-32 -76 -123 -76q-89 0 -123 76q-39 82 -39 317z" />
<glyph unicode="1" horiz-adv-x="696" d="M104 705h224v-705h112v969h-104q0 -178 -232 -178v-86z" />
<glyph unicode="2" horiz-adv-x="696" d="M59 0h562v96h-437q3 83 113 174q102 85 152.5 128.5t52.5 45.5q110 118 110 256q0 64 -20 114t-56 84.5t-85 52.5t-107 18q-276 0 -276 -334h118q0 121 36 177t122 56q145 0 145 -170q0 -127 -114 -229q-54 -45 -106.5 -89t-106.5 -89q-112 -121 -103 -291z" />
<glyph unicode="3" horiz-adv-x="696" d="M53 285q0 -305 281 -305q149 0 225 86q70 79 70 217q0 186 -183 227q73 19 112.5 78t39.5 139q0 52 -18.5 96t-53 76t-84 50t-110.5 18q-260 0 -260 -285h112q0 50 8 85t26 57.5t47.5 33t72.5 10.5q137 0 137 -155q0 -105 -61 -142q-45 -26 -154 -26v-96q68 0 115.5 -9.5 t77 -32.5t42.5 -61.5t13 -95.5q0 -38 -11.5 -69.5t-33.5 -54t-54.5 -35.5t-74.5 -13q-166 0 -166 207h-115z" />
<glyph unicode="4" horiz-adv-x="696" d="M39 244h379v-244h119v240h90v98h-92v629h-107l-389 -625v-98zM150 340l268 434v-434h-268z" />
<glyph unicode="5" horiz-adv-x="696" d="M57 256q-2 -69 19 -121.5t63 -87.5q74 -65 197 -65q64 0 117 23.5t90 66.5t57.5 104t20.5 135q0 75 -17.5 135t-50.5 102.5t-80.5 65.5t-107.5 23q-101 0 -166 -68l32 283h351v96h-443l-57 -497h100q40 88 158 88q83 0 127 -74q37 -61 37 -154q0 -100 -43 -166 q-46 -69 -129 -69q-156 0 -156 180h-119z" />
<glyph unicode="6" horiz-adv-x="696" d="M55 481q0 -118 14 -205.5t40 -144.5q70 -149 243 -149q143 0 219 104q70 95 70 236q0 65 -20 118.5t-55.5 91.5t-84.5 59t-108 21q-138 0 -203 -114q0 372 195 372q135 0 135 -133h114q0 96 -61 160q-70 70 -186 70q-161 0 -240 -144q-35 -63 -53.5 -148t-18.5 -194z M188 299q0 221 166 221t166 -221q0 -106 -45.5 -163.5t-120.5 -57.5q-166 0 -166 221z" />
<glyph unicode="7" horiz-adv-x="696" d="M61 852h463q-80 -87 -146 -196.5t-120 -243.5q-98 -244 -98 -412h133q0 91 21 192t63 216q94 260 258 448v92h-574v-96z" />
<glyph unicode="8" horiz-adv-x="696" d="M61 274q0 -68 20.5 -122.5t57.5 -92.5t89 -58.5t114 -20.5t115 20.5t91.5 58.5t60.5 92.5t22 122.5q0 48 -15 90.5t-41 75.5t-62.5 55.5t-78.5 30.5q40 6 71 23.5t52 44t32 61t11 74.5q0 112 -76 176q-72 60 -178 60t-178 -60q-76 -64 -76 -176q0 -40 11 -74.5t32 -61 t52 -44t71 -23.5q-42 -8 -78.5 -30.5t-62.5 -55.5t-41 -75.5t-15 -90.5zM180 272q0 94 47.5 145.5t122.5 51.5q38 0 70 -13t55 -38t36 -62.5t13 -85.5q0 -43 -12.5 -79t-35 -62t-54 -40.5t-68.5 -14.5q-36 0 -67.5 15t-55.5 41.5t-37.5 62.5t-13.5 79zM217 719 q0 72 39 111.5t96 39.5t96 -39.5t39 -111.5t-39 -112t-96 -40t-96 40t-39 112z" />
<glyph unicode="9" horiz-adv-x="696" d="M55 627q0 -65 20 -119t55.5 -92t85 -59t108.5 -21q137 0 202 115q0 -373 -194 -373q-135 0 -135 133h-115q0 -47 17 -88.5t48.5 -73t77.5 -49.5t105 -18q160 0 239 143q35 63 53.5 148.5t18.5 193.5q0 235 -53 350q-70 150 -244 150q-143 0 -219 -105q-70 -94 -70 -235z M176 649q0 106 49 166q43 55 117 55q166 0 166 -221t-166 -221t-166 221z" />
<glyph unicode=":" horiz-adv-x="307" d="M82 72q0 -29 21.5 -50.5t50.5 -21.5t50 21.5t21 50.5t-21 50t-50 21t-50.5 -21t-21.5 -50zM82 584q0 -29 21.5 -50.5t50.5 -21.5t50 21.5t21 50.5t-21 50t-50 21t-50.5 -21t-21.5 -50z" />
<glyph unicode=";" horiz-adv-x="307" d="M74 57q0 -31 21 -52t52 -21q5 0 12 1.5t15 6.5q3 -60 -80 -96l15 -31q27 9 48.5 26t36.5 39.5t23 49t8 53.5q0 45 -23 71.5t-55 26.5q-31 0 -52 -21.5t-21 -52.5zM74 584q0 -29 21 -50.5t50 -21.5t50.5 21.5t21.5 50.5t-21.5 50t-50.5 21t-50 -21t-21 -50z" />
<glyph unicode="&#x3c;" horiz-adv-x="696" d="M82 328l539 -299v94l-437 246l437 245v95l-539 -299v-82z" />
<glyph unicode="=" horiz-adv-x="686" d="M41 201h604v90h-604v-90zM41 446h604v91h-604v-91z" />
<glyph unicode="&#x3e;" horiz-adv-x="696" d="M82 29l539 299v82l-539 299v-95l438 -245l-438 -246v-94z" />
<glyph unicode="?" horiz-adv-x="672" d="M51 666h119q0 211 156 211q157 0 157 -156q0 -82 -57 -154q-26 -32 -53.5 -65.5t-53.5 -67.5q-55 -90 -49 -213h123q-5 50 6 94t39 86q29 34 57 68l56 68q61 85 61 186q0 54 -20.5 99.5t-58 78t-89.5 50.5t-114 18q-69 0 -121 -22t-87 -61.5t-53 -95.5t-18 -124zM256 68 q0 -32 23 -55t55 -23t55 23t23 55t-23 54.5t-55 22.5t-55 -22.5t-23 -54.5z" />
<glyph unicode="@" horiz-adv-x="1032" d="M47 477q0 -209 143 -352q144 -143 349 -143q142 0 258 73q54 32 94.5 75t69.5 97h-76q-53 -78 -137 -129q-95 -55 -207 -55q-178 0 -303 125t-125 307q0 178 125 303q127 127 301 127q158 0 270 -98q111 -99 111 -252q0 -54 -18.5 -106t-53.5 -103q-70 -100 -158 -100 q-31 0 -31 35q0 16 9 45l141 417h-84l-20 -61q-53 86 -150 86q-184 0 -289 -236q-17 -38 -26 -75t-9 -74q0 -45 12.5 -82.5t35.5 -64.5t57 -41.5t76 -14.5q89 0 155 66q29 -68 115 -68q119 0 211 119q92 121 92 252q0 185 -131 301q-129 117 -319 117q-203 0 -347 -144 q-141 -144 -141 -346zM332 391q0 58 24 117q84 184 203 184q86 0 86 -96q0 -59 -31 -137q-79 -205 -188 -205q-94 0 -94 137z" />
<glyph unicode="A" horiz-adv-x="733" d="M0 0h123l80 281h325l84 -281h131l-294 967h-156zM225 373l144 520l137 -520h-281z" />
<glyph unicode="B" horiz-adv-x="733" d="M90 0h279q311 0 311 289q0 103 -53 162q-25 26 -57 41t-72 18q159 52 159 213q0 123 -82 186q-70 58 -186 58h-299v-967zM207 96v361h127q58 0 101 -9t71.5 -30.5t42.5 -56.5t14 -87q0 -178 -180 -178h-176zM207 553v317h123q110 0 156 -36t46 -117q0 -164 -204 -164 h-121z" />
<glyph unicode="C" horiz-adv-x="733" d="M53 498q0 -125 16 -218t48 -153q79 -150 270 -150q68 0 122.5 25t93 72.5t59 117t20.5 158.5h-117q0 -62 -12 -112.5t-36 -86.5t-59 -55.5t-81 -19.5q-129 0 -174 143q-29 92 -29 281q0 391 213 391q41 0 74 -15t56 -43t35.5 -68t12.5 -89h115q0 68 -21 125.5t-59 99 t-91.5 65t-117.5 23.5q-338 0 -338 -491z" />
<glyph unicode="D" horiz-adv-x="811" d="M94 0h309q174 0 261 147q79 133 79 371q0 449 -362 449h-287v-967zM209 96v774h178q238 0 238 -356q0 -214 -50 -309q-55 -109 -190 -109h-176z" />
<glyph unicode="E" horiz-adv-x="645" d="M84 0h514v96h-399v359h372v96h-372v319h397v97h-512v-967z" />
<glyph unicode="F" horiz-adv-x="567" d="M84 0h115v457h336v96h-336v317h362v97h-477v-967z" />
<glyph unicode="G" horiz-adv-x="811" d="M53 498q0 -125 16 -218t48 -153q79 -150 270 -150q175 0 246 164v-149h90v504h-348v-95h231q-3 -161 -49 -237q-54 -88 -180 -88q-129 0 -174 143q-29 92 -29 281q0 391 225 391q197 0 197 -205h115q0 70 -20.5 126t-59.5 95.5t-96.5 60.5t-131.5 21q-350 0 -350 -491z " />
<glyph unicode="H" horiz-adv-x="801" d="M90 0h115v467h391v-467h115v967h-115v-404h-391v404h-115v-967z" />
<glyph unicode="I" horiz-adv-x="346" d="M117 0h114v967h-114v-967z" />
<glyph unicode="J" horiz-adv-x="578" d="M10 262q0 -282 240 -282q244 0 244 274v713h-117v-723q0 -168 -129 -168q-123 0 -123 164v63h-115v-41z" />
<glyph unicode="K" horiz-adv-x="733" d="M90 0h117v336l108 131l279 -467h139l-332 563l324 404h-141l-379 -494v494h-115v-967z" />
<glyph unicode="L" horiz-adv-x="635" d="M94 0h522v96h-405v871h-117v-967z" />
<glyph unicode="M" horiz-adv-x="1042" d="M86 0h115v918l252 -918h135l254 920v-920h114v967h-202l-222 -797l-14 -100l-10 100l-217 797h-205v-967z" />
<glyph unicode="N" horiz-adv-x="811" d="M88 0h113v915l16 -71l318 -844h190v967h-115v-899l-336 899h-186v-967z" />
<glyph unicode="O" horiz-adv-x="811" d="M59 481q0 -270 93 -393q82 -113 256 -113q173 0 256 113q90 125 90 393q0 259 -84.5 382.5t-263.5 123.5q-180 0 -263.5 -123.5t-83.5 -382.5zM180 481q0 408 226 408q227 0 227 -408q0 -235 -55 -325q-51 -82 -170 -82q-60 0 -103 20t-67 62q-58 91 -58 325z" />
<glyph unicode="P" horiz-adv-x="733" d="M98 0h115v410h156q331 0 331 286q0 271 -313 271h-289v-967zM213 508v362h129q244 0 244 -182q0 -180 -256 -180h-117z" />
<glyph unicode="Q" horiz-adv-x="811" d="M59 481q0 -270 93 -393q82 -113 256 -113q130 0 215 68l110 -90l58 67l-113 91q76 122 76 370q0 259 -84.5 382.5t-263.5 123.5q-180 0 -263.5 -123.5t-83.5 -382.5zM180 481q0 408 226 408q227 0 227 -408q0 -204 -43 -299l-94 76l-58 -68l101 -79q-49 -37 -131 -37 q-60 0 -103 20t-67 62q-58 91 -58 325z" />
<glyph unicode="R" horiz-adv-x="811" d="M98 0h115v426h195h24t17 2l180 -428h125l-193 457q162 73 162 248q0 262 -322 262h-303v-967zM213 522v348h174q211 0 211 -168q0 -180 -201 -180h-184z" />
<glyph unicode="S" horiz-adv-x="733" d="M51 256q0 -65 20.5 -117t60 -88.5t96.5 -56t130 -19.5q75 0 134.5 20.5t101 57.5t64 89t22.5 116q0 132 -86 197q-59 46 -227 98q-47 14 -79 29t-50 30q-56 47 -56 127q0 34 13.5 62t37.5 48t55.5 31t67.5 11q181 0 181 -178h118q0 272 -299 272q-67 0 -120.5 -18 t-91 -50.5t-58 -77.5t-20.5 -98q0 -150 81 -213q20 -15 72 -36.5t135 -47.5q57 -18 93 -33t53 -26q32 -23 47.5 -59t15.5 -84q0 -79 -56.5 -123.5t-150.5 -44.5q-190 0 -190 231h-115v-49z" />
<glyph unicode="T" horiz-adv-x="635" d="M0 870h262v-870h115v870h258v97h-635v-97z" />
<glyph unicode="U" horiz-adv-x="811" d="M92 272q0 -292 314 -292q313 0 313 292v695h-115v-678q0 -215 -198 -215q-199 0 -199 215v678h-115v-695z" />
<glyph unicode="V" horiz-adv-x="725" d="M-4 967l293 -967h145l295 967h-127l-240 -889h-2l-237 889h-127z" />
<glyph unicode="W" horiz-adv-x="1112" d="M0 967l229 -967h140l178 782l8 107l10 -107l178 -782h140l229 967h-135l-154 -801l-12 -90l-186 891h-138l-174 -801l-12 -90l-166 891h-135z" />
<glyph unicode="X" horiz-adv-x="733" d="M0 0h147l220 408l219 -408h147l-303 498l293 469h-135l-221 -381l-222 381h-135l293 -469z" />
<glyph unicode="Y" horiz-adv-x="723" d="M-4 967l303 -592v-375h115v375l307 592h-129l-236 -484l-233 484h-127z" />
<glyph unicode="Z" horiz-adv-x="655" d="M18 0h621v96h-500l492 778v93h-600v-97h483l-496 -780v-90z" />
<glyph unicode="[" horiz-adv-x="424" d="M119 -270h243v80h-135v1081h135v76h-243v-1237z" />
<glyph unicode="\" horiz-adv-x="434" d="M-4 967l354 -967h82l-354 967h-82z" />
<glyph unicode="]" horiz-adv-x="424" d="M61 -190v-80h244v1237h-244v-76h136v-1081h-136z" />
<glyph unicode="^" horiz-adv-x="696" d="M98 430h72l178 436l178 -436h76l-219 537h-70z" />
<glyph unicode="_" horiz-adv-x="696" d="M0 -102v-76h696v76h-696z" />
<glyph unicode="`" horiz-adv-x="424" d="M29 987l182 -182h94l-125 182h-151z" />
<glyph unicode="a" horiz-adv-x="578" d="M25 182q0 -200 192 -200q127 0 176 112q12 -102 113 -102q12 0 25.5 1.5t27.5 6.5v76q-8 -2 -13.5 -3t-10.5 -1q-41 0 -41 61v393q0 209 -215 209q-228 0 -228 -211h101q0 127 116 127q123 0 123 -114q0 -75 -43 -91l-186 -69q-137 -52 -137 -195zM137 180q0 97 72 131 l170 76v-151q0 -168 -150 -168q-92 0 -92 112z" />
<glyph unicode="b" horiz-adv-x="655" d="M84 0h100v86q57 -106 185 -106t190 139q47 108 47 278q0 148 -57 236q-65 104 -193 104q-57 0 -97.5 -23t-63.5 -71v322h-111v-965zM190 358q0 291 150 291q41 0 69.5 -16t46 -50.5t25.5 -90t8 -134.5q0 -290 -149 -290q-40 0 -68.5 16.5t-46.5 51.5t-26.5 90t-8.5 132z " />
<glyph unicode="c" horiz-adv-x="578" d="M43 348q0 -364 260 -364q117 0 178.5 71.5t61.5 194.5h-103q0 -182 -139 -182q-147 0 -147 274q0 141 24 209q35 96 123 96q135 0 135 -155h103q0 55 -16.5 100t-47 77.5t-75 50t-99.5 17.5q-258 0 -258 -389z" />
<glyph unicode="d" horiz-adv-x="655" d="M47 397q0 -85 12 -154.5t37 -123.5q59 -139 189 -139q127 0 184 106v-86h100v965h-110v-322q-46 94 -162 94q-128 0 -193 -104q-57 -90 -57 -236zM164 358q0 79 8 134.5t26 90t46 50.5t69 16q150 0 150 -291q0 -77 -8.5 -132t-26.5 -90t-46.5 -51.5t-68.5 -16.5 q-149 0 -149 290z" />
<glyph unicode="e" horiz-adv-x="578" d="M39 371q0 -387 248 -387q239 0 239 256h-104q0 -174 -129 -174q-45 0 -74.5 22.5t-46.5 69.5q-11 29 -15.5 77.5t-4.5 114.5h378q1 23 1 44q0 343 -240 343q-252 0 -252 -366zM152 434q0 215 137 215q127 0 127 -215h-264z" />
<glyph unicode="f" horiz-adv-x="346" d="M0 631h111v-631h108v631h119v86h-119v74q0 94 82 94q9 0 18.5 -1t18.5 -3v84q-24 6 -49 6q-71 0 -123 -45q-55 -52 -55 -129v-80h-111v-86z" />
<glyph unicode="g" horiz-adv-x="655" d="M39 365q0 -383 248 -383q103 0 174 102q0 -64 -7.5 -109.5t-26 -75t-49.5 -43.5t-77 -14q-29 0 -52.5 7t-40.5 19t-26.5 28t-9.5 34h-102q0 -81 71 -131q66 -43 156 -43q274 0 274 344v617h-106v-80q-51 100 -184 100q-120 0 -185 -121q-29 -52 -43 -114.5t-14 -136.5z M156 358q0 293 153 293q154 0 154 -293q0 -292 -154 -292q-153 0 -153 292z" />
<glyph unicode="h" horiz-adv-x="655" d="M82 0h111v512q0 25 11.5 49.5t32.5 44t49.5 31.5t63.5 12q117 0 117 -135v-514h111v537q0 200 -189 200q-121 0 -196 -100v330h-111v-967z" />
<glyph unicode="i" horiz-adv-x="268" d="M80 0h110v717h-110v-717zM80 838h110v129h-110v-129z" />
<glyph unicode="j" horiz-adv-x="268" d="M0 -150v-94q8 -2 16 -2h17q162 0 162 246v717h-111v-717q0 -152 -66 -152h-9t-9 2zM84 838h111v129h-111v-129z" />
<glyph unicode="k" horiz-adv-x="578" d="M74 0h110v254l86 100l195 -354h131l-254 438l238 279h-127l-269 -332v582h-110v-967z" />
<glyph unicode="l" horiz-adv-x="268" d="M80 0h110v967h-110v-967z" />
<glyph unicode="m" horiz-adv-x="1042" d="M86 0h111v514q0 30 12.5 55t34.5 43.5t50 28.5t60 10q113 0 113 -137v-514h111v512q0 31 13 56.5t35.5 44t52 28.5t62.5 10q107 0 107 -129v-522h110v557q0 40 -15 73t-41 57t-61 37t-75 13q-152 0 -205 -114q-56 114 -184 114q-124 0 -184 -110v90h-107v-717z" />
<glyph unicode="n" horiz-adv-x="655" d="M82 0h111v512q0 25 11.5 49.5t32.5 44t49.5 31.5t63.5 12q117 0 117 -135v-514h111v537q0 200 -189 200q-121 0 -196 -100v80h-111v-717z" />
<glyph unicode="o" horiz-adv-x="655" d="M49 358q0 -376 273 -376q278 0 278 378q0 377 -272 377q-279 0 -279 -379zM164 358q0 293 162 293q159 0 159 -293q0 -292 -161 -292q-160 0 -160 292z" />
<glyph unicode="p" horiz-adv-x="655" d="M80 -242h110v316q46 -94 162 -94q128 0 193 114q29 51 43 117t14 149q0 377 -237 377q-127 0 -185 -106v86h-100v-959zM186 358q0 155 35 223t115 68q149 0 149 -291q0 -79 -8 -134.5t-26 -90t-46.5 -50t-68.5 -15.5q-150 0 -150 290z" />
<glyph unicode="q" horiz-adv-x="655" d="M49 360q0 -164 57 -266q66 -114 193 -114q116 0 162 94v-316h110v959h-100v-86q-58 106 -184 106q-238 0 -238 -377zM166 358q0 291 149 291q80 0 115 -68t35 -223q0 -290 -150 -290q-41 0 -69 15.5t-46 50t-26 90t-8 134.5z" />
<glyph unicode="r" horiz-adv-x="424" d="M92 0h111v434q0 40 14.5 76t38.5 63t55.5 42.5t65.5 15.5q12 0 24 -1.5t23 -6.5v102q-15 1 -30 1q-137 0 -195 -128v119h-107v-717z" />
<glyph unicode="s" horiz-adv-x="578" d="M39 209q0 -110 61 -169.5t172 -59.5q55 0 103.5 15t85 43t57.5 68.5t21 92.5q0 89 -78 143q-16 11 -57.5 28.5t-110.5 43.5q-38 14 -60 24t-30 15q-47 33 -47 94q0 104 120 104q127 0 127 -127h105q0 213 -240 213q-48 0 -89.5 -14t-72 -41t-48 -65.5t-17.5 -86.5 q0 -92 70 -143q37 -28 143 -63q49 -17 79.5 -29.5t41.5 -20.5q49 -30 49 -92q0 -114 -148 -114q-135 0 -135 141h-102z" />
<glyph unicode="t" horiz-adv-x="346" d="M-8 631h106v-494q0 -137 121 -137h117v86h-74q-53 0 -53 51v494h129v86h-129v194h-111v-194h-106v-86z" />
<glyph unicode="u" horiz-adv-x="655" d="M88 180q0 -200 182 -200q56 0 103.5 24.5t85.5 75.5v-80h110v717h-110v-498q0 -50 -37 -98q-44 -53 -113 -53q-33 0 -54.5 6t-33.5 21t-17 41t-5 67v514h-111v-537z" />
<glyph unicode="v" horiz-adv-x="578" d="M0 717l225 -717h127l226 717h-115l-174 -631l-174 631h-115z" />
<glyph unicode="w" horiz-adv-x="889" d="M8 717l197 -717h114l123 633l129 -633h115l197 717h-113l-141 -633l-125 633h-117l-125 -633l-141 633h-113z" />
<glyph unicode="x" horiz-adv-x="578" d="M-8 0h117l182 281l182 -281h117l-242 369l227 348h-114l-170 -260l-170 260h-115l227 -348z" />
<glyph unicode="y" horiz-adv-x="578" d="M-14 717l247 -731l-12 -39q-33 -103 -145 -103q-32 0 -62 13v-84q19 -8 37.5 -11.5t38.5 -3.5q34 0 67 11t61.5 32t50.5 51t34 68l266 797h-110l-183 -623l-176 623h-114z" />
<glyph unicode="z" horiz-adv-x="502" d="M12 0h477v84h-360l356 551v82h-456v-84h346l-363 -551v-82z" />
<glyph unicode="{" horiz-adv-x="342" d="M-10 422q125 -37 125 -133v-262q0 -154 227 -154v14q-115 0 -115 131v242q0 144 -137 162q137 18 137 162v241q0 131 115 131v15q-227 0 -227 -154v-262q0 -97 -125 -133z" />
<glyph unicode="|" horiz-adv-x="307" d="M111 0h88v967h-88v-967z" />
<glyph unicode="}" horiz-adv-x="342" d="M-10 -113v-14q227 0 227 154v262q0 96 125 133q-125 36 -125 133v262q0 154 -227 154v-15q114 0 114 -131v-241q0 -144 138 -162q-138 -18 -138 -162v-242q0 -131 -114 -131z" />
<glyph unicode="~" horiz-adv-x="655" d="M37 276l49 -59q52 111 121 111q46 0 121 -43q77 -41 133 -41q98 0 160 141l-54 53q-52 -100 -108 -100q-23 0 -55 11t-70 34q-77 47 -135 47q-110 0 -162 -154z" />
<glyph unicode="&#xa4;" horiz-adv-x="840" d="M8 164l76 -76l145 148q82 -62 193 -62q53 0 105.5 18.5t82.5 43.5l150 -148l71 76l-145 145q59 78 59 193q0 110 -59 188l145 150l-71 71l-150 -145q-32 27 -82.5 43t-105.5 16q-115 0 -193 -59l-145 145l-76 -71l148 -150q-62 -74 -62 -188q0 -111 62 -193zM197 502 q0 88 65 160q64 67 160 67q49 0 89 -18.5t69.5 -49t46 -72.5t16.5 -87q0 -101 -63 -164q-66 -68 -158 -68q-98 0 -162 68q-63 70 -63 164z" />
<glyph unicode="&#xa9;" horiz-adv-x="1032" d="M12 483q0 -209 148 -356q147 -147 356 -147t356 147q148 147 148 356t-148 357q-147 147 -356 147t-356 -147q-148 -148 -148 -357zM84 483q0 180 127 305q127 130 305 130t305 -130q127 -125 127 -305q0 -177 -127 -307q-127 -127 -305 -127t-305 127q-127 130 -127 307 zM291 473q0 -291 233 -291q108 0 166 64q49 58 49 147h-67q-9 -153 -150 -153q-160 0 -160 229q0 258 160 258q137 0 146 -133h67q-9 190 -213 190q-231 0 -231 -311z" />
<glyph unicode="&#xab;" horiz-adv-x="655" d="M115 362l194 -200v106l-129 131l129 133v107l-194 -199v-78zM344 362l195 -200v106l-129 131l129 133v107l-195 -199v-78z" />
<glyph unicode="&#xac;" horiz-adv-x="696" d="M49 283h512v-213h84v303h-596v-90z" />
<glyph unicode="&#xad;" horiz-adv-x="696" d="M41 324h614v90h-614v-90z" />
<glyph unicode="&#xae;" horiz-adv-x="1032" d="M12 483q0 -209 148 -356q147 -147 356 -147t356 147q148 147 148 356t-148 357q-147 147 -356 147t-356 -147q-148 -148 -148 -357zM84 483q0 180 127 305q127 130 305 130t305 -130q127 -125 127 -305q0 -177 -127 -307q-127 -127 -305 -127t-305 127q-127 130 -127 307 zM326 201h69v260h127l158 -260h82l-164 260q36 1 65.5 13t50.5 32.5t32.5 48.5t11.5 61q0 152 -201 152h-231v-567zM395 514v199h154q137 0 137 -95q0 -104 -121 -104h-170z" />
<glyph unicode="&#xb0;" horiz-adv-x="541" d="M66 713q0 -43 16 -80t43.5 -64.5t63.5 -43t77 -15.5q43 0 80.5 16t65 43.5t43.5 64.5t16 79t-16 79t-43.5 64t-65 43t-80.5 16q-42 0 -78.5 -16.5t-63.5 -44t-42.5 -64.5t-15.5 -77zM121 713q0 31 11 57.5t30.5 46t46 30.5t57.5 11t58 -11.5t47.5 -31t32.5 -46t12 -56.5 q0 -59 -45 -105q-45 -43 -105 -43q-30 0 -56.5 12t-46 32t-31 47t-11.5 57z" />
<glyph unicode="&#xb6;" horiz-adv-x="727" d="M0 858q0 152 94 229q90 66 248 66h389v-41h-102v-1354h-62v1354h-145v-1354h-55v803q-168 0 -263 62q-104 73 -104 235z" />
<glyph unicode="&#xb7;" horiz-adv-x="338" d="M96 449q0 -33 21 -54q11 -11 24.5 -15.5t28.5 -4.5q29 0 50.5 21.5t21.5 52.5q0 29 -20.5 50t-51.5 21q-33 0 -53 -20q-21 -24 -21 -51z" />
<glyph unicode="&#xbb;" horiz-adv-x="655" d="M115 162l194 196v80l-194 201v-107l129 -133l-129 -131v-106zM344 162l195 196v80l-195 201v-107l129 -133l-129 -131v-106z" />
<glyph unicode="&#xd7;" horiz-adv-x="696" d="M55 139l64 -63l229 229l230 -229l63 63l-229 230l229 229l-63 64l-230 -230l-229 230l-64 -64l230 -229z" />
<glyph unicode="&#xf7;" horiz-adv-x="696" d="M41 324h614v90h-614v-90zM276 133q0 -29 21.5 -50.5t50.5 -21.5t50.5 21.5t21.5 50.5t-21.5 50.5t-50.5 21.5t-50.5 -21.5t-21.5 -50.5zM276 604q0 -29 21.5 -50.5t50.5 -21.5t50.5 21.5t21.5 50.5t-21.5 50.5t-50.5 21.5t-50.5 -21.5t-21.5 -50.5z" />
<glyph unicode="&#xe00;" horiz-adv-x="205" />
<glyph unicode="&#xe01;" horiz-adv-x="725" d="M57 627l84 -58q-69 -26 -69 -106v-463h108v475q0 80 80 103l-80 57q40 113 185 113q40 0 73 -13t57 -35.5t37 -53.5t13 -68v-578h108v586q0 55 -21 100t-58.5 76.5t-91 49t-117.5 17.5q-131 0 -215 -63q-74 -58 -93 -139z" />
<glyph unicode="&#xe02;" horiz-adv-x="682" d="M68 737h63q76 0 76 -61v-10q0 -41 -68 -68q-67 -27 -67 -88v-295q0 -52 19.5 -93.5t55 -71t85 -45t110.5 -15.5t110.5 15.5t84.5 44.5t54 70.5t19 94.5v604h-108v-596q0 -151 -160 -151q-162 0 -162 151v271q0 37 66 71q34 17 50.5 41t16.5 53v43q0 117 -125 117h-86z " />
<glyph unicode="&#xe03;" horiz-adv-x="692" d="M-20 758q40 -72 129 -72q14 0 27 1.5t26 6.5q-78 -63 -78 -141v-338q0 -52 20 -93.5t55.5 -71t84.5 -45t108 -15.5q61 0 110.5 15.5t84.5 44.5t54.5 70.5t19.5 94.5v604h-107v-596q0 -151 -162 -151t-162 151v330q0 57 54 117l92 86l-78 73q-28 -55 -106 -55 q-84 0 -105 55z" />
<glyph unicode="&#xe04;" horiz-adv-x="725" d="M72 0h108v375h217v92h-217v111q0 78 49 124t133 46q87 0 135 -46t48 -124v-578h108v584q0 56 -21.5 101t-60 77t-92 49.5t-117.5 17.5q-63 0 -116.5 -17.5t-92 -49.5t-60 -77t-21.5 -101v-584z" />
<glyph unicode="&#xe05;" horiz-adv-x="745" d="M72 0h108v375h217v92h-217v149q0 97 62 115q39 -80 131 -80t133 80q61 -18 61 -115v-616h107v635q0 42 -14.5 78t-41 61.5t-64 40t-83.5 14.5q0 -16 -7 -32t-20 -28.5t-31 -20t-40 -7.5t-40 7.5t-30.5 20t-19.5 28.5t-7 32q-46 0 -83.5 -14.5t-64.5 -40t-41.5 -61.5 t-14.5 -78v-635z" />
<glyph unicode="&#xe06;" horiz-adv-x="756" d="M-23 758q40 -70 121 -70q21 0 39 6q-17 -17 -26 -41.5t-9 -58.5v-496q0 -23 -4.5 -47.5t-15.5 -50.5h129v115q38 -63 96 -94t133 -31q52 0 96.5 17t77.5 47.5t51.5 73.5t18.5 95v596h-109v-577q0 -79 -44.5 -124.5t-116.5 -45.5q-69 0 -135 57q-68 58 -68 137v344 q0 85 102 144l-77 75q-32 -55 -99 -55q-71 0 -92 55z" />
<glyph unicode="&#xe07;" horiz-adv-x="686" d="M10 819l172 -819h226q60 0 102.5 24.5t69.5 77.5t39 135.5t12 198.5q0 105 -10.5 177t-30.5 112q-49 94 -187 94h-67l-53 -82h61q101 0 137 -55q20 -31 29.5 -93.5t9.5 -156.5q0 -99 -7.5 -166t-25.5 -108t-47.5 -58.5t-72.5 -17.5h-88l-156 737h-113z" />
<glyph unicode="&#xe08;" horiz-adv-x="682" d="M-10 614h123q15 52 61 88q55 46 129 46q52 0 93.5 -25t69.5 -68.5t42 -104t12 -130.5q-2 -82 -20 -145.5t-54 -108.5q-58 -78 -147 -84l-72 358q-15 76 -94 76l-88 -84q75 -3 84 -57l74 -375h127q126 0 215 119q88 119 88 317q0 91 -23 164t-65 124t-101.5 78t-132.5 27 q-128 0 -217 -67q-77 -59 -104 -148z" />
<glyph unicode="&#xe09;" horiz-adv-x="723" d="M45 614h123q5 28 21 52.5t40.5 42.5t56.5 28.5t70 10.5q42 0 77 -13t60 -37t38.5 -58.5t13.5 -76.5v-297q0 -42 -13.5 -77.5t-38 -61t-58.5 -40t-75 -15.5q-182 -3 -182 180v219h-127q11 -26 16 -50.5t5 -47.5v-146q0 -54 19.5 -98t54 -75t81 -47.5t99.5 -16.5 q157 0 219 123v-113h127q-11 26 -16 50.5t-5 47.5v484q0 57 -22.5 103t-62.5 78t-94 49t-118 17q-118 0 -209 -65q-85 -64 -100 -150z" />
<glyph unicode="&#xe0a;" horiz-adv-x="694" d="M72 215q0 -53 20 -94.5t56 -70.5t87 -44.5t113 -15.5q61 0 112 15.5t87 44.5t56 70.5t20 94.5v240q0 34 -13 63t-36.5 50.5t-56.5 33.5t-73 12q179 20 179 148v57h-109v-51q0 -113 -168 -113h-67v-82h67q37 0 68 -10t53.5 -27.5t34.5 -42.5t12 -55v-215q0 -151 -166 -151 q-168 0 -168 151v596h-108v-604z" />
<glyph unicode="&#xe0b;" horiz-adv-x="705" d="M-20 758q40 -72 129 -72q14 0 27 1.5t26 6.5q-78 -63 -78 -141v-338q0 -53 20 -94.5t56 -70.5t86.5 -44.5t111.5 -15.5q64 0 115 15.5t86.5 44.5t54.5 70.5t19 94.5v240q0 34 -13 63t-36.5 50.5t-56 33.5t-72.5 12q178 20 178 148v57h-107v-51q0 -113 -170 -113h-45v-82 h45q38 0 69 -10t53.5 -27.5t35 -42.5t12.5 -55v-215q0 -151 -168 -151t-168 151v330q0 57 54 117l92 86l-78 73q-28 -55 -106 -55q-84 0 -105 55z" />
<glyph unicode="&#xe0c;" horiz-adv-x="1155" d="M57 627l84 -58q-69 -26 -69 -106v-463h198l33 82h-123v393q0 80 80 103l-80 57q40 113 185 113q40 0 73 -13t57 -35.5t37 -53.5t13 -68v-480q0 -23 -5 -47.5t-16 -50.5h129v94q81 -104 209 -104q49 0 89.5 14t70 41t45.5 67t16 91v616h-108v-598q0 -149 -141 -149 q-70 0 -121 45q-60 54 -60 129v340q0 55 -21 100t-58.5 76.5t-91 49t-117.5 17.5q-131 0 -215 -63q-74 -58 -93 -139z" />
<glyph unicode="&#xe0d;" horiz-adv-x="1155" d="M57 627l84 -58q-69 -26 -69 -106v-463h198l33 82h-123v393q0 80 80 103l-80 57q40 113 185 113q40 0 73 -13t57 -35.5t37 -53.5t13 -68v-383q0 -104 82 -158q71 -47 174 -47q123 0 174 57q0 -149 -164 -149h-268v-82h280q260 0 260 268v735h-108v-612q0 -135 -160 -135 q-65 0 -110 30q-52 37 -52 105v379q0 55 -21 100t-58.5 76.5t-91 49t-117.5 17.5q-131 0 -215 -63q-74 -58 -93 -139z" />
<glyph unicode="&#xe0e;" horiz-adv-x="745" d="M2 82l33 -82h166v475q0 81 82 103l-80 57q39 113 184 113q42 0 75.5 -12.5t57 -35t35.5 -54t12 -68.5v-750q-64 61 -170 76q-37 -104 -145 -113q-95 -9 -158 62v-105q32 -23 73.5 -31.5t92.5 -3.5t93.5 28.5t76.5 65.5q47 -14 80.5 -38t54.5 -56h109v873q0 55 -20.5 100 t-58.5 76.5t-91 49t-117 17.5q-131 0 -215 -63q-75 -59 -92 -139l84 -58q-70 -27 -70 -106v-381h-92z" />
<glyph unicode="&#xe0f;" horiz-adv-x="745" d="M2 82l33 -82h166v475q0 81 82 103l-80 57q39 113 184 113q42 0 75.5 -12.5t57 -35t35.5 -54t12 -68.5v-779h-88q-21 72 -112 72q-94 0 -119 -72h-195v-86h223q5 31 30 53.5t61 22.5q18 0 33.5 -6t27.5 -16.5t19 -24.5t8 -29h219v873q0 55 -20.5 100t-58.5 76.5t-91 49 t-117 17.5q-131 0 -215 -63q-75 -59 -92 -139l84 -58q-70 -27 -70 -106v-381h-92z" />
<glyph unicode="&#xe10;" horiz-adv-x="694" d="M-10 614h123q15 52 61 88q55 46 129 46q52 0 93.5 -25t69.5 -68.5t42 -104t12 -130.5q-2 -82 -20 -145.5t-54 -108.5q-58 -78 -147 -84l-72 358q-15 76 -94 76l-88 -84q75 -3 84 -57l74 -375h127q126 0 215 119q88 119 88 317q0 191 -96 299q136 26 145 146h-129 q4 -18 0.5 -34t-12 -28t-21.5 -19t-28 -7q-27 0 -84 18q-59 18 -97 18q-128 0 -217 -67q-77 -59 -104 -148zM33 -160v-86h172q5 31 30 53.5t60 22.5q18 0 33.5 -6t27.5 -16.5t19 -24.5t8 -29h209v185h-107v-99h-77q-23 72 -113 72q-48 0 -77 -18.5t-42 -53.5h-143z" />
<glyph unicode="&#xe11;" horiz-adv-x="756" d="M-23 758q41 -72 115 -72q11 0 22.5 1.5t22.5 6.5q-17 -15 -26 -50t-9 -91v-553h109q14 94 43.5 204.5t77.5 241.5q51 141 92 212.5t70 76.5q81 12 81 -160v-575h109v612q0 217 -184 217q-167 0 -289 -487v211q0 87 31 133l69 70l-75 73q-32 -55 -99 -55q-71 0 -92 55z " />
<glyph unicode="&#xe12;" horiz-adv-x="1196" d="M72 0h108l303 479v82h-196l-35 -82h127l-133 -211q-29 -52 -47.5 -87.5t-26.5 -55.5h-4q12 97 12 162v329q0 97 66 115q39 -80 137 -80q100 0 139 80q66 -18 66 -115v-518q0 -23 -5 -47.5t-16 -50.5h127v94q84 -104 209 -104q49 0 89.5 14t70 41t45.5 67t16 91v616h-106 v-598q0 -149 -141 -149q-74 0 -123 45q-60 54 -60 129v389q0 42 -15 78t-42.5 61.5t-65.5 40t-84 14.5q0 -16 -8 -32t-22 -28.5t-33 -20t-41 -7.5q-21 0 -40 7.5t-32.5 20t-21.5 28.5t-8 32q-46 0 -84.5 -14.5t-66 -40t-43 -61.5t-15.5 -78v-635z" />
<glyph unicode="&#xe13;" horiz-adv-x="1155" d="M57 627l84 -58q-69 -26 -69 -106v-463h198l33 82h-123v393q0 80 80 103l-80 57q40 113 185 113q40 0 73 -13t57 -35.5t37 -53.5t13 -68v-371q0 -54 18 -94.5t53 -69.5q65 -53 162 -53q153 0 197 102v-92h129q-21 52 -21 98v721h-108v-573q0 -39 -13.5 -71.5t-36.5 -55 t-53 -35t-63 -12.5q-156 0 -156 157v357q0 55 -21 100t-58.5 76.5t-91 49t-117.5 17.5q-131 0 -215 -63q-74 -58 -93 -139z" />
<glyph unicode="&#xe14;" horiz-adv-x="766" d="M72 0h108l303 479v82h-196l-35 -82h127l-135 -211q-28 -51 -46 -87t-26 -56h-4q12 97 12 162v291q0 39 14.5 70.5t41.5 53.5t64.5 34t82.5 12t83 -12t65 -34t42 -53.5t15 -70.5v-578h106v584q0 56 -22.5 101t-63.5 77t-98 49.5t-127 17.5q-68 0 -125.5 -17.5t-98.5 -49.5 t-64 -77t-23 -101v-584z" />
<glyph unicode="&#xe15;" horiz-adv-x="766" d="M72 0h108l303 479v82h-196l-35 -82h127l-133 -211q-29 -51 -47.5 -87t-26.5 -56h-4q12 97 12 162v329q0 97 66 115q39 -80 137 -80q100 0 139 80q66 -18 66 -115v-616h106v635q0 42 -15 78t-42.5 61.5t-65.5 40t-84 14.5q0 -16 -8 -32t-22 -28.5t-33 -20t-41 -7.5 q-21 0 -40 7.5t-32.5 20t-21.5 28.5t-8 32q-46 0 -84.5 -14.5t-66 -40t-43 -61.5t-15.5 -78v-635z" />
<glyph unicode="&#xe16;" horiz-adv-x="725" d="M57 627l84 -58q-69 -26 -69 -106v-463h198l33 82h-123v393q0 80 80 103l-80 57q40 113 185 113q40 0 73 -13t57 -35.5t37 -53.5t13 -68v-578h108v586q0 55 -21 100t-58.5 76.5t-91 49t-117.5 17.5q-131 0 -215 -63q-74 -58 -93 -139z" />
<glyph unicode="&#xe17;" horiz-adv-x="725" d="M51 819q11 -26 16 -50.5t5 -47.5v-721h108v553q0 41 16.5 76.5t45 62t65.5 41.5t78 15q160 0 160 -191v-557h108v582q0 247 -231 247q-165 0 -242 -122v112h-129z" />
<glyph unicode="&#xe18;" horiz-adv-x="713" d="M61 633q0 -135 289 -162q189 -18 189 -154v-94q0 -77 -58 -117q-49 -34 -125 -34q-74 0 -125 34q-57 40 -57 117v187h-108v-195q0 -52 22 -93.5t61 -71t92 -45t115 -15.5q64 0 117.5 15.5t92 45t60 71t21.5 93.5v135q0 177 -248 201q-216 21 -219 90q-1 22 13 42 t37.5 34.5t54.5 23t65 7.5q36 -1 68 -11.5t56.5 -28t40.5 -42t20 -52.5h112q-8 49 -33.5 89t-64.5 68t-90.5 43t-112.5 15q-119 0 -201 -57q-84 -57 -84 -139z" />
<glyph unicode="&#xe19;" horiz-adv-x="725" d="M72 248q0 -122 75 -191q71 -67 179 -67q160 0 219 123v-113h129q-11 26 -16 50.5t-5 47.5v721h-108v-553q0 -42 -13.5 -77.5t-37.5 -61.5t-57.5 -40.5t-74.5 -14.5q-182 0 -182 200v547h-108v-571z" />
<glyph unicode="&#xe1a;" horiz-adv-x="725" d="M72 236q0 -56 21.5 -101.5t60 -77.5t92 -49.5t116.5 -17.5q64 0 117.5 17.5t92 49.5t60 77.5t21.5 101.5v583h-108v-577q0 -79 -48 -124.5t-135 -45.5q-85 0 -133.5 45.5t-48.5 124.5v577h-108v-583z" />
<glyph unicode="&#xe1b;" horiz-adv-x="725" d="M72 236q0 -56 21.5 -101.5t60 -77.5t92 -49.5t116.5 -17.5q64 0 117.5 17.5t92 49.5t60 77.5t21.5 101.5v829h-108v-823q0 -79 -48 -124.5t-135 -45.5q-85 0 -133.5 45.5t-48.5 124.5v577h-108v-583z" />
<glyph unicode="&#xe1c;" horiz-adv-x="850" d="M72 154q0 -86 63 -127q52 -37 135 -37q116 0 156 67q40 -67 156 -67q81 0 133 37q63 41 63 127v665h-108v-665q0 -82 -95 -82q-96 0 -96 82v665h-108v-665q0 -82 -95 -82q-96 0 -96 82v573h96l-30 92h-174v-665z" />
<glyph unicode="&#xe1d;" horiz-adv-x="850" d="M72 154q0 -86 63 -127q52 -37 135 -37q116 0 156 67q40 -67 156 -67q81 0 133 37q63 41 63 127v911h-108v-911q0 -82 -95 -82q-96 0 -96 82v665h-108v-665q0 -82 -95 -82q-96 0 -96 82v573h96l-30 92h-174v-665z" />
<glyph unicode="&#xe1e;" horiz-adv-x="850" d="M72 154q0 -86 63 -127q52 -37 135 -37q116 0 156 67q40 -67 156 -67q81 0 133 37q63 41 63 127v665h-108v-665q0 -82 -95 -82q-96 0 -96 82v665h-108v-665q0 -82 -95 -82q-96 0 -96 82v665h-108v-665z" />
<glyph unicode="&#xe1f;" horiz-adv-x="850" d="M72 154q0 -86 63 -127q52 -37 135 -37q116 0 156 67q40 -67 156 -67q81 0 133 37q63 41 63 127v911h-108v-911q0 -82 -95 -82q-96 0 -96 82v665h-108v-665q0 -82 -95 -82q-96 0 -96 82v665h-108v-665z" />
<glyph unicode="&#xe20;" horiz-adv-x="745" d="M2 82l33 -82h166v475q0 81 82 103l-80 57q39 113 184 113q40 0 73 -13t57 -35.5t37 -53.5t13 -68v-578h107v586q0 55 -20.5 100t-58.5 76.5t-91 49t-117 17.5q-131 0 -215 -63q-75 -59 -92 -139l84 -58q-70 -27 -70 -106v-381h-92z" />
<glyph unicode="&#xe21;" horiz-adv-x="725" d="M51 0h129v115q76 -125 230 -125q51 0 95.5 17t77.5 47.5t51.5 73.5t18.5 95v596h-108v-577q0 -79 -45 -124.5t-117 -45.5q-69 0 -135 57q-68 59 -68 137v553h-108v-721q0 -23 -5 -47.5t-16 -50.5z" />
<glyph unicode="&#xe22;" horiz-adv-x="715" d="M61 236q0 -56 21.5 -101.5t59.5 -77.5t91.5 -49.5t118.5 -17.5q64 0 118 17.5t92 49.5t59.5 77.5t21.5 101.5v583h-108v-577q0 -79 -48 -124.5t-135 -45.5q-85 0 -133.5 45.5t-48.5 124.5v53q0 30 12.5 55t35 42.5t53.5 27.5t69 10h66v86l-66 -4q-32 -2 -61 3t-52 17 q-54 31 -57 91q-3 110 131 110h111l-58 86h-88q-45 0 -83 -15t-65.5 -41t-42.5 -60.5t-14 -73.5q2 -68 46 -110.5t112 -47.5q-35 -2 -64 -17t-50 -38.5t-32.5 -54t-11.5 -64.5v-61z" />
<glyph unicode="&#xe23;" horiz-adv-x="662" d="M39 250q-1 -62 20 -110t59.5 -81.5t93 -51t122.5 -17.5q64 0 116.5 17t90 49t57.5 78.5t20 105.5q0 179 -235 231q-108 24 -150 49q-59 36 -59 98q0 28 12.5 51.5t34 41t49.5 27.5t60 10q31 0 59 -10.5t49.5 -28.5t34.5 -42.5t14 -52.5h111q-4 48 -26 88t-57.5 68 t-83 43.5t-101.5 15.5q-110 0 -187 -61q-82 -64 -82 -162q0 -155 250 -211q195 -42 195 -172q0 -33 -13.5 -60.5t-37.5 -47t-56 -30.5t-69 -11q-38 0 -71 13.5t-57 37t-36 55.5t-8 70h-119z" />
<glyph unicode="&#xe24;" horiz-adv-x="725" d="M57 627l84 -58q-69 -26 -69 -106v-463h178l33 82h-103v393q0 80 80 103l-80 57q40 113 185 113q40 0 73 -13t57 -35.5t37 -53.5t13 -68v-865h108v873q0 55 -21 100t-58.5 76.5t-91 49t-117.5 17.5q-131 0 -215 -63q-74 -58 -93 -139z" />
<glyph unicode="&#xe25;" horiz-adv-x="721" d="M41 225q0 -111 76 -172q69 -57 186 -57q14 0 29 1t30 3l60 92q-44 -12 -86 -12q-76 0 -125 37q-55 39 -55 112q0 120 143 154q204 46 242 78v-461h108v606q0 51 -22 92.5t-60 70.5t-91 44.5t-114 15.5q-60 0 -111.5 -16.5t-90.5 -45t-63.5 -68t-30.5 -85.5h122 q3 28 17 52.5t37.5 42.5t55 28.5t69.5 10.5q39 0 70.5 -10t53.5 -27.5t34 -42t12 -52.5q0 -69 -95 -106q-13 -5 -172 -43q-51 -12 -91 -33.5t-73 -52.5q-65 -68 -65 -156z" />
<glyph unicode="&#xe26;" horiz-adv-x="745" d="M2 82l33 -82h166v475q0 81 82 103l-80 57q39 113 184 113q40 0 73 -13t57 -35.5t37 -53.5t13 -68v-865h107v873q0 55 -20.5 100t-58.5 76.5t-91 49t-117 17.5q-131 0 -215 -63q-75 -59 -92 -139l84 -58q-70 -27 -70 -106v-381h-92z" />
<glyph unicode="&#xe27;" horiz-adv-x="666" d="M35 225q4 -54 26 -97.5t58.5 -74t87 -47t110.5 -16.5q297 0 297 420q0 419 -297 419q-52 0 -98.5 -16t-83.5 -44.5t-61.5 -68t-32.5 -86.5h115q33 134 161 134q189 0 189 -338t-189 -338q-154 0 -170 153h-112z" />
<glyph unicode="&#xe28;" horiz-adv-x="735" d="M72 0h108v375h217v92h-217v111q0 78 49 124t133 46q87 0 135 -46t48 -124v-578h108v584q0 99 -69 168q149 30 149 129h-129q-3 -76 -80 -76q-5 0 -22 3.5t-39.5 8t-49 8.5t-51.5 4q-63 0 -116.5 -17.5t-92 -49.5t-60 -77t-21.5 -101v-584z" />
<glyph unicode="&#xe29;" horiz-adv-x="745" d="M72 236q0 -56 21.5 -101.5t60 -77.5t92 -49.5t116.5 -17.5q64 0 117.5 17.5t92 49.5t60 77.5t21.5 101.5v153h52l53 82h-105v348h-108v-348h-107v74h-108v-156h215v-147q0 -79 -48 -124.5t-135 -45.5q-85 0 -133.5 45.5t-48.5 124.5v577h-108v-583z" />
<glyph unicode="&#xe2a;" horiz-adv-x="741" d="M41 225q0 -111 76 -172q69 -57 186 -57q14 0 29 1t30 3l60 92q-44 -12 -86 -12q-76 0 -125 37q-55 39 -55 112q0 120 143 154q204 46 242 78v-461h108v606q0 78 -45 129q72 11 111.5 47.5t44.5 98.5h-129q2 -5 2 -10v-9q0 -15 -6.5 -28t-17 -22t-24 -14t-26.5 -5h-8t-8 2 q-51 17 -95.5 25.5t-85.5 8.5q-60 0 -111.5 -16.5t-90.5 -45t-63.5 -68t-30.5 -85.5h122q3 28 17 52.5t37.5 42.5t55 28.5t69.5 10.5q39 0 70.5 -10t53.5 -27.5t34 -42t12 -52.5q0 -69 -95 -106q-13 -5 -172 -43q-51 -12 -91 -33.5t-73 -52.5q-65 -68 -65 -156z" />
<glyph unicode="&#xe2b;" horiz-adv-x="745" d="M51 819q11 -26 16 -50.5t5 -47.5v-721h104v262q0 106 98 242q101 143 201 143q38 0 66 -25.5t28 -68.5v-553h105v561q0 139 -127 166h127v92h-357v-92h105q-32 -8 -67.5 -28.5t-73.5 -55.5q-77 -70 -105 -139v315h-125z" />
<glyph unicode="&#xe2c;" horiz-adv-x="850" d="M72 154q0 -86 63 -127q52 -37 135 -37q116 0 156 67q40 -67 156 -67q81 0 133 37q63 41 63 127v653q0 34 -13 63t-36 50.5t-56 34t-73 12.5q71 3 125 32q74 41 74 111v37h-107v-29q0 -110 -190 -110h-68v-82h68q37 0 68 -10t53.5 -28t34.5 -42.5t12 -54.5v-637 q0 -82 -95 -82q-96 0 -96 82v665h-108v-665q0 -82 -95 -82q-96 0 -96 82v665h-108v-665z" />
<glyph unicode="&#xe2d;" horiz-adv-x="705" d="M61 276q0 -68 20 -121.5t58 -90t91.5 -55.5t121.5 -19q67 0 121 19t92 55.5t58 90t20 121.5v287q0 62 -20.5 111.5t-58.5 84t-91.5 52.5t-120.5 18q-65 0 -119 -17.5t-92 -50t-59 -77.5t-21 -100v-6h109q0 78 48 124t134 46q183 0 183 -191v-274q0 -99 -48 -155t-135 -56 q-86 0 -134 56t-48 155v116h182v93h-291v-216z" />
<glyph unicode="&#xe2e;" horiz-adv-x="715" d="M61 276q0 -68 20 -121.5t58 -90t91.5 -55.5t121.5 -19q67 0 121 19t92 55.5t58 90t20 121.5v308q0 108 -72 174q134 21 140 123h-129q-3 -82 -82 -70q-126 18 -148 18q-65 0 -119 -17.5t-92 -50t-59 -77.5t-21 -100v-6h109q0 78 48 124t134 46q183 0 183 -191v-274 q0 -99 -48 -155t-135 -56q-86 0 -134 56t-48 155v116h182v93h-291v-216z" />
<glyph unicode="&#xe2f;" horiz-adv-x="618" d="M0 715q0 -38 19.5 -70.5t52.5 -56.5t77 -37.5t93 -13.5q65 0 127 36q26 16 43.5 32.5t25.5 33.5v-639h109v819h-109v-26q0 -37 -14.5 -68t-38.5 -54t-55.5 -36.5t-65.5 -16.5q-59 -3 -100 25q-47 32 -47 86q0 51 41 90h-117q-41 -47 -41 -104z" />
<glyph unicode="&#xe30;" horiz-adv-x="350" d="M51 102h234l45 82h-170v74h-109v-156zM51 561h234l45 82h-170v74h-109v-156z" />
<glyph unicode="&#xe31;" d="M-395 911h450v82h-342v84h-108v-166z" />
<glyph unicode="&#xe32;" horiz-adv-x="588" d="M0 614h111q0 25 11 49.5t30.5 43t47 30t60.5 11.5q148 0 148 -185v-563h108v582q0 247 -258 247q-108 0 -184 -67q-68 -62 -74 -148z" />
<glyph unicode="&#xe33;" horiz-adv-x="588" d="M-246 1020q0 -50 34 -79.5t85 -29.5t85 29.5t34 79.5q0 49 -34 78.5t-85 29.5t-85 -29.5t-34 -78.5zM-174 1020q0 47 47 47t47 -47t-47 -47t-47 47zM0 614h111q0 25 11 49.5t30.5 43t47 30t60.5 11.5q148 0 148 -185v-563h108v582q0 247 -258 247q-108 0 -184 -67 q-68 -62 -74 -148z" />
<glyph unicode="&#xe34;" d="M-621 911h549v82h-549v-82z" />
<glyph unicode="&#xe35;" d="M-621 911h549v205h-108v-123h-441v-82z" />
<glyph unicode="&#xe36;" d="M-621 911h494q25 0 46 8.5t36.5 23.5t24 35t8.5 42t-9 41.5t-24.5 34.5t-36.5 23.5t-45 8.5t-44.5 -8.5t-35.5 -23.5t-24 -34.5t-9 -41.5q0 -5 1 -12t3 -15h-385v-82zM-176 1020q0 47 49 47t49 -47t-49 -47t-49 47z" />
<glyph unicode="&#xe37;" d="M-621 911h549v205h-108v-123h-64v123h-86v-123h-291v-82z" />
<glyph unicode="&#xe38;" d="M-268 -82v-92h88v-174h108v266h-196z" />
<glyph unicode="&#xe39;" d="M-500 -82v-92h66v-64q0 -62 63 -96q51 -26 121 -26q66 0 117 28q61 34 61 99v151h-108v-141q0 -60 -70 -60q-76 0 -76 60v141h-174z" />
<glyph unicode="&#xe3a;" d="M-195 -154q0 -29 21.5 -50t50.5 -21t50.5 21t21.5 50t-21.5 50.5t-50.5 21.5t-50.5 -21.5t-21.5 -50.5z" />
<glyph unicode="&#xe3f;" horiz-adv-x="733" d="M90 0h244v-150h61v150q285 12 285 289q0 103 -53 162q-25 26 -57 41t-72 18q159 52 159 213q0 119 -77 184q-70 57 -183 60v131h-63v-131h-244v-967zM207 96v361h127v-361h-127zM207 553v317h127v-317h-127zM395 96v359q168 -19 168 -181q0 -172 -168 -178zM395 557v309 q137 -15 137 -149q0 -136 -137 -160z" />
<glyph unicode="&#xe40;" horiz-adv-x="338" d="M113 0h166l34 82h-94v737h-106v-819z" />
<glyph unicode="&#xe41;" horiz-adv-x="621" d="M113 0h166l34 82h-94v737h-106v-819zM395 0h166l35 82h-94v737h-107v-819z" />
<glyph unicode="&#xe42;" horiz-adv-x="358" d="M20 1192q0 -41 56 -82q57 -39 57 -78v-1032h166l35 82h-94v977q0 45 -52 76q-51 33 -51 51q0 29 82 26l268 -6l-61 88l-227 6q-35 2 -65.5 -4t-55.5 -18q-58 -31 -58 -86z" />
<glyph unicode="&#xe43;" horiz-adv-x="358" d="M-82 1153h109q0 21 9 39.5t24.5 32t36 21t42.5 7.5q95 0 101 -77q3 -39 -52 -84q-55 -44 -55 -101v-991h166l35 82h-94v885q0 53 57 98q29 23 43 50t14 56q0 38 -17 67.5t-46.5 50t-69.5 31.5t-86 11q-88 0 -153 -53q-32 -26 -49 -57t-15 -68z" />
<glyph unicode="&#xe44;" horiz-adv-x="358" d="M-121 1202h316q-62 -21 -62 -92v-1110h166l35 82h-94v1001q0 28 9 50t24.5 37.5t36 23.5t42.5 8v88h-411z" />
<glyph unicode="&#xe45;" horiz-adv-x="600" d="M0 614h111q0 25 11 49.5t30.5 43t47 30t60.5 11.5q148 0 148 -185v-850h108v869q0 247 -258 247q-108 0 -184 -67q-68 -62 -74 -148z" />
<glyph unicode="&#xe46;" horiz-adv-x="682" d="M51 512h195v82h-86v61q0 76 61 76q32 -59 111 -59q83 0 110 59q62 0 62 -76v-942h106v940q0 176 -202 176q0 -14 -6.5 -26.5t-17 -21.5t-24 -14t-28.5 -5q-76 0 -76 67q-205 0 -205 -176v-141z" />
<glyph unicode="&#xe47;" d="M-594 911h123q92 0 129 52q37 -52 102 -52h109l41 86h-121q-90 0 -131 56q-28 -38 -59 -47q-11 -5 -32 -7t-50 -2v27q0 61 92 61h155q136 0 136 109v47h-109v-29q0 -53 -74 -53h-120q-88 0 -139.5 -39.5t-51.5 -107.5v-101z" />
<glyph unicode="&#xe48;" d="M-180 1178h108v163h-108v-163z" />
<glyph unicode="&#xe49;" d="M-350 1270q50 0 65 -6q29 -11 29 -54v-32h295v73h-193v17q0 82 -100 82h-53z" />
<glyph unicode="&#xe4a;" d="M-395 1178h86v43q0 46 30 49q1 -9 8.5 -17t18.5 -15t24.5 -11t26.5 -4t26 4t23.5 11t17 15t7.5 17q31 -3 31 -49v-43h59q31 4 57 18.5t45 36t30 49t11 57.5q0 11 -1 20.5t-3 18.5h-94q15 -27 15 -61q0 -66 -31 -88q0 114 -123 114q0 -11 -6 -21t-16 -17.5t-22.5 -12 t-25.5 -4.5q-73 0 -73 55q-121 0 -121 -114v-51z" />
<glyph unicode="&#xe4b;" d="M-262 1243h88v-65h94v65h88v64h-88v65h-94v-65h-88v-64z" />
<glyph unicode="&#xe4c;" d="M-240 1100h97v26q0 50 73 50h68v73h-107q-131 0 -131 -102v-47z" />
<glyph unicode="&#xe4d;" d="M-246 1020q0 -50 34 -79.5t85 -29.5t85 29.5t34 79.5q0 49 -34 78.5t-85 29.5t-85 -29.5t-34 -78.5zM-174 1020q0 47 47 47t47 -47t-47 -47t-47 47z" />
<glyph unicode="&#xe4e;" d="M-508 1130q3 -90 117 -102q45 -5 89 4.5t89 34.5l-35 63q-65 -30 -114 -30q-56 0 -62 30q-9 51 84 78q60 13 101.5 20t66.5 9v74q-17 -2 -32 -0.5t-29 4.5q-60 9 -60 53q1 25 24.5 45.5t63.5 33.5t94.5 18t116.5 1v74q-88 2 -153.5 -6t-110.5 -27q-27 -11 -49.5 -27.5 t-38 -35t-24.5 -38.5t-9 -38q0 -61 64 -88q-38 -2 -70 -12t-59 -27q-32 -22 -49 -49t-15 -62z" />
<glyph unicode="&#xe4f;" horiz-adv-x="963" d="M61 410q0 -174 123 -297t297 -123t297 123t123 297t-123 297q-124 122 -297 122t-297 -122q-123 -123 -123 -297zM123 410q0 146 104 252q107 106 254 106q149 0 252 -106q107 -104 107 -252t-107 -254q-104 -105 -252 -105q-146 0 -254 105q-104 107 -104 254zM225 410 q0 -54 18.5 -99t55.5 -84q76 -73 182 -73q107 0 181 73q75 76 75 183q0 108 -75 180q-75 76 -181 76t-182 -76q-74 -74 -74 -180z" />
<glyph unicode="&#xe50;" horiz-adv-x="758" d="M61 307q0 -142 91 -231q90 -86 227 -86q68 0 124 21t101 65q92 88 92 231q0 144 -92 230q-88 88 -225 88q-136 0 -227 -88t-91 -230zM168 307q0 49 16.5 92t45 75t67 50.5t82.5 18.5t82.5 -18.5t67 -50.5t45 -75t16.5 -92t-16.5 -92t-45 -74.5t-67 -50t-82.5 -18.5 t-82.5 18.5t-67 50t-45 74.5t-16.5 92z" />
<glyph unicode="&#xe51;" horiz-adv-x="778" d="M61 305q0 -145 76 -227q72 -78 168 -78q73 0 129 59q58 61 58 136q0 47 -26.5 77t-68.5 29q-18 -1 -33.5 -8t-27 -18.5t-18.5 -26.5t-7 -33q0 -65 60 -80q-17 -41 -62 -41q-27 0 -52.5 15.5t-45 43t-31.5 66t-12 84.5q0 102 65 170q69 70 162 70q46 0 85.5 -17.5t68 -49 t45 -75t16.5 -94.5q0 -231 -188 -348l92 -27q37 23 70.5 57.5t62.5 82.5q70 109 70 229q0 72 -22.5 131.5t-64.5 102t-102.5 66.5t-136.5 24q-143 0 -237 -95q-93 -92 -93 -225z" />
<glyph unicode="&#xe52;" horiz-adv-x="901" d="M-31 762q57 -11 85 -45.5t28 -91.5v-625h737v461q0 164 -157 164q-86 0 -119 -68q-35 68 -119 68q-158 0 -158 -164v-207q0 -96 90 -96q35 0 59.5 24.5t24.5 59.5q0 73 -71 84v141q0 76 61 76q62 0 62 -76v-160h102v160q0 76 61 76q62 0 62 -76v-381h-533v588 q0 128 -125 155z" />
<glyph unicode="&#xe53;" horiz-adv-x="799" d="M82 86q0 -96 90 -96q35 0 59.5 24.5t24.5 59.5q0 75 -72 84v303q0 82 82 82t82 -82v-461h103v461q0 82 81 82q82 0 82 -82v-461h103v461q0 164 -178 164q-51 0 -85.5 -17t-54.5 -51q-39 68 -139 68q-178 0 -178 -164v-375z" />
<glyph unicode="&#xe54;" horiz-adv-x="758" d="M61 299q0 -70 19.5 -126.5t53.5 -96t80.5 -61t100.5 -21.5q85 0 150 53q67 -55 203 -55l45 92q-70 -12 -135 8q-15 4 -28.5 13.5t-24 22t-17 28t-6.5 30.5h12q35 0 59.5 24.5t24.5 59.5q0 37 -27.5 62t-68.5 24q-75 -3 -101 -90q-11 -42 -6 -82t27 -82q-33 -20 -76 -20 q-36 0 -68.5 16t-56.5 45t-38.5 69.5t-14.5 88.5q0 122 80 184q73 55 196 52t193 55q84 75 72 227h-109q2 -15 3 -29t1 -26q0 -45 -11 -74.5t-36 -46t-64.5 -22t-97.5 -3.5q-150 4 -241 -88q-93 -89 -93 -231z" />
<glyph unicode="&#xe55;" horiz-adv-x="758" d="M61 299q0 -70 19.5 -126.5t53.5 -96t80.5 -61t100.5 -21.5q85 0 150 53q67 -55 203 -55l45 92q-70 -12 -135 8q-15 4 -28.5 13.5t-24 22t-17 28t-6.5 30.5h12q35 0 59.5 24.5t24.5 59.5q0 37 -27.5 62t-68.5 24q-75 -3 -101 -90q-11 -42 -6 -82t27 -82q-33 -20 -76 -20 q-36 0 -68.5 16t-56.5 45t-38.5 69.5t-14.5 88.5q0 51 14.5 94t41 74.5t63 50.5t80.5 23q51 2 90.5 3t68.5 -1q201 15 183 274h-109q2 -14 3 -27.5t1 -25.5q0 -130 -110 -145q22 22 22 69q0 28 -10.5 52t-28.5 42t-42 28.5t-52 10.5t-52 -10.5t-42 -28.5t-28.5 -42 t-10.5 -52q0 -51 35 -86q-50 -15 -91 -43.5t-70.5 -68.5t-46 -89t-16.5 -104zM326 688q0 57 57 57t57 -57t-57 -57t-57 57z" />
<glyph unicode="&#xe56;" horiz-adv-x="711" d="M0 762q82 -15 82 -103v-249h108q47 133 175 133q40 0 72.5 -18.5t55.5 -50t35.5 -73t12.5 -86.5q0 -222 -172 -237q-87 -9 -140 41q33 26 33 69q0 38 -25.5 63t-62.5 25t-63.5 -26t-26.5 -68q0 -88 88 -143q76 -49 172 -49q72 0 128.5 23t95.5 66t60 102.5t21 133.5 q0 70 -19 127.5t-53.5 98t-83 62.5t-106.5 22q-126 0 -203 -95v177q0 110 -104 122z" />
<glyph unicode="&#xe57;" horiz-adv-x="1010" d="M82 86q0 -96 90 -96q35 0 59.5 24.5t24.5 59.5q0 75 -72 84v303q0 82 82 82t82 -82v-461h103v461q0 82 81 82q82 0 82 -82v-316q0 -75 -77 -96l53 -49h84q53 0 99 17t80.5 47.5t54.5 72.5t20 92v445q0 18 7 34t18 29.5t26 22.5t31 12l-80 59q-45 -8 -75 -41t-30 -81v-484 q0 -33 -12.5 -61t-33 -48.5t-46.5 -33t-53 -14.5q37 27 37 94v299q0 164 -178 164q-51 0 -85.5 -17t-54.5 -51q-39 68 -139 68q-178 0 -178 -164v-375z" />
<glyph unicode="&#xe58;" horiz-adv-x="748" d="M72 215q0 -215 149 -215h70l82 106l82 -106h98q123 0 123 143v131q0 97 -90 97q-35 0 -59.5 -24.5t-24.5 -59.5q0 -75 71 -84v-39q0 -26 -4.5 -41t-14 -23.5t-25 -11t-37.5 -2.5l-119 145l-121 -147q-62 0 -74 88q-2 6 -2 39v94q0 69 12 114t35 68q41 41 168 41h105 q43 0 79.5 12.5t63.5 35t42 53t15 67.5v92l-102 41v-100q0 -115 -131 -115h-135q-256 0 -256 -258v-141z" />
<glyph unicode="&#xe59;" horiz-adv-x="778" d="M72 182q0 -192 178 -192q121 0 121 96q0 35 -24.5 59.5t-59.5 24.5q-67 0 -82 -66q-31 16 -31 86v226q0 25 7.5 47t20.5 38t31 25t39 9q79 0 138 -150l145 -385h109l-156 397q-5 13 -7.5 25t-2.5 24q0 39 21 64t52 25q68 0 103 -68h104v201q0 85 66 94l-72 67 q-96 -18 -96 -114v-131q-30 41 -113 41q-105 0 -133 -101q-58 101 -170 101q-39 0 -73.5 -14t-60 -40t-40 -63t-14.5 -84v-242z" />
<glyph unicode="&#xe5a;" horiz-adv-x="829" d="M0 715q0 -38 19.5 -70.5t52.5 -56.5t77 -37.5t93 -13.5q65 0 127 36q26 16 43.5 32.5t25.5 33.5v-639h109v557q38 16 64 36t38 46v-639h109v819h-109v-26q0 -109 -102 -156v182h-109v-26q0 -37 -14.5 -68t-38.5 -54t-55.5 -36.5t-65.5 -16.5q-59 -3 -100 25 q-47 32 -47 86q0 51 41 90h-117q-41 -47 -41 -104z" />
<glyph unicode="&#xe5b;" horiz-adv-x="1495" d="M92 414q0 -79 20 -144.5t56.5 -112t87 -72.5t111.5 -26q129 0 233 119q78 88 119 258q8 -26 16.5 -58.5t16.5 -70.5q9 -49 41 -49q31 0 53 49q8 19 18 54t21 88q8 -13 17 -40t20 -69q15 -55 39 -55q47 0 65 147q12 -14 39 -80q18 -45 37 -45q38 0 59 127q8 -11 16 -29 t19 -43q12 -30 27 -30q29 0 43 53l178 18q49 4 49 31q0 28 -49 31l-178 18q-30 3 -45 -45q-46 76 -74 76q-12 0 -19 -10t-12 -25.5t-8.5 -34t-7.5 -34.5q-59 135 -99 135q-11 0 -17.5 -12.5t-10.5 -31t-6 -40.5t-4 -41q-59 164 -103 164q-34 0 -37 -49q-2 -48 -6 -85 t-10 -63q-7 45 -18.5 85t-25.5 69t-30 46t-31 17q-44 0 -53 -84q-12 -86 -37 -156.5t-60.5 -121t-79.5 -78t-93 -27.5q-43 0 -79 19t-61.5 54t-40 84.5t-14.5 111.5q0 61 12.5 113t34.5 89.5t51.5 58.5t63.5 21q42 0 72 -30.5t35 -75.5q-23 6 -33 6q-24 0 -45.5 -11t-37 -30 t-25 -44t-9.5 -52q0 -29 9 -53.5t25 -43t37.5 -29t47.5 -10.5q30 0 55 14.5t42.5 41t27.5 62.5t10 79q0 55 -16.5 102.5t-45 82.5t-67.5 55t-84 20q-106 0 -180 -104q-72 -104 -72 -254zM367 453q0 63 53 63q55 0 55 -63q0 -64 -55 -64q-53 0 -53 64z" />
<glyph unicode="&#x2000;" horiz-adv-x="799" />
<glyph unicode="&#x2001;" horiz-adv-x="1599" />
<glyph unicode="&#x2002;" horiz-adv-x="799" />
<glyph unicode="&#x2003;" horiz-adv-x="1599" />
<glyph unicode="&#x2004;" horiz-adv-x="533" />
<glyph unicode="&#x2005;" horiz-adv-x="399" />
<glyph unicode="&#x2006;" horiz-adv-x="266" />
<glyph unicode="&#x2007;" horiz-adv-x="266" />
<glyph unicode="&#x2008;" horiz-adv-x="199" />
<glyph unicode="&#x2009;" horiz-adv-x="319" />
<glyph unicode="&#x200a;" horiz-adv-x="88" />
<glyph unicode="&#x2010;" horiz-adv-x="424" d="M61 324h301v90h-301v-90z" />
<glyph unicode="&#x2011;" horiz-adv-x="424" d="M61 324h301v90h-301v-90z" />
<glyph unicode="&#x2012;" horiz-adv-x="424" d="M61 324h301v90h-301v-90z" />
<glyph unicode="&#x2013;" horiz-adv-x="696" d="M41 324h614v90h-614v-90z" />
<glyph unicode="&#x2014;" horiz-adv-x="1393" d="M41 324h1311v90h-1311v-90z" />
<glyph unicode="&#x2018;" horiz-adv-x="291" d="M61 766q3 -102 93 -102q32 0 54.5 22.5t22.5 54.5t-22.5 55t-54.5 23q-22 0 -35 -8q0 74 90 109l-29 28q-122 -52 -119 -182z" />
<glyph unicode="&#x2019;" horiz-adv-x="291" d="M61 870q0 -32 23 -54.5t55 -22.5q22 0 35 8q0 -74 -90 -109l29 -28q62 26 91 71.5t27 110.5q-3 102 -92 102q-32 0 -55 -23t-23 -55z" />
<glyph unicode="&#x201c;" horiz-adv-x="516" d="M59 766q3 -102 93 -102q32 0 54.5 22.5t22.5 54.5t-22.5 55t-54.5 23q-22 0 -35 -8q0 74 90 109l-29 28q-122 -52 -119 -182zM285 766q3 -102 92 -102q32 0 55 22.5t23 54.5t-23 55t-55 23q-22 0 -35 -8q0 74 90 109l-29 28q-121 -52 -118 -182z" />
<glyph unicode="&#x201d;" horiz-adv-x="516" d="M61 870q0 -32 23 -54.5t55 -22.5q22 0 35 8q0 -74 -90 -109l29 -28q62 26 91 71.5t27 110.5q-3 102 -92 102q-32 0 -55 -23t-23 -55zM287 870q0 -32 23 -54.5t55 -22.5q21 0 34 8q0 -75 -90 -109l29 -28q122 51 119 182q-3 102 -92 102q-32 0 -55 -23t-23 -55z" />
<glyph unicode="&#x2022;" horiz-adv-x="635" d="M61 410q0 -54 18.5 -99t55.5 -84q76 -73 182 -73q108 0 181 73q75 76 75 183q0 108 -75 180q-73 76 -181 76q-106 0 -182 -76q-74 -74 -74 -180z" />
<glyph unicode="&#x2026;" horiz-adv-x="1311" d="M166 0h119v129h-119v-129zM596 0h117v129h-117v-129zM1026 0h117v129h-117v-129z" />
<glyph unicode="&#x202f;" horiz-adv-x="319" />
<glyph unicode="&#x205f;" horiz-adv-x="399" />
<glyph unicode="&#xe000;" horiz-adv-x="715" d="M0 0v715h715v-715h-715z" />
<glyph unicode="&#xf700;" horiz-adv-x="694" d="M-10 614h123q15 52 61 88q55 46 129 46q52 0 93.5 -25t69.5 -68.5t42 -104t12 -130.5q-2 -82 -20 -145.5t-54 -108.5q-58 -78 -147 -84l-72 358q-15 76 -94 76l-88 -84q75 -3 84 -57l74 -375h127q126 0 215 119q88 119 88 317q0 191 -96 299q136 26 145 146h-129 q4 -18 0.5 -34t-12 -28t-21.5 -19t-28 -7q-27 0 -84 18q-59 18 -97 18q-128 0 -217 -67q-77 -59 -104 -148z" />
<glyph unicode="&#xf701;" d="M-750 911h506v82h-506v-82z" />
<glyph unicode="&#xf702;" d="M-750 911h506v205h-108v-123h-398v-82z" />
<glyph unicode="&#xf703;" d="M-756 911h441q24 0 45 8.5t36.5 23.5t24 35t8.5 42t-9 41.5t-24.5 34.5t-36 23.5t-44.5 8.5t-45 -8.5t-36.5 -23.5t-24.5 -34.5t-9 -41.5q0 -5 1 -12t3 -15h-330v-82zM-365 1020q0 47 50 47q49 0 49 -47t-49 -47q-50 0 -50 47z" />
<glyph unicode="&#xf704;" d="M-750 911h506v205h-108v-123h-64v123h-86v-123h-248v-82z" />
<glyph unicode="&#xf705;" d="M-395 911h108v205h-108v-205z" />
<glyph unicode="&#xf706;" d="M-571 1014q56 0 71 -6q33 -13 33 -60v-37h371v82h-258v19q0 90 -111 90h-59z" />
<glyph unicode="&#xf707;" d="M-653 911h96v47q0 53 33 56q5 -20 30 -36.5t56 -16.5t56.5 16.5t27.5 36.5q35 -3 35 -56v-47h65q34 6 63 22.5t50.5 41t34 54t12.5 61.5q0 22 -6 45h-105q8 -16 12.5 -33t4.5 -37q0 -71 -35 -96q0 127 -135 127q0 -13 -6.5 -24.5t-18 -19.5t-26 -13t-29.5 -5t-29.5 5 t-26 13t-18 19.5t-6.5 24.5q-135 0 -135 -127v-58z" />
<glyph unicode="&#xf708;" d="M-535 983h97v-72h108v72h97v72h-97v71h-108v-71h-97v-72z" />
<glyph unicode="&#xf709;" d="M-487 948h106v31q0 55 82 55h76v82h-121q-143 0 -143 -115v-53z" />
<glyph unicode="&#xf70a;" d="M-180 911h108v205h-108v-205z" />
<glyph unicode="&#xf70b;" d="M-403 1014q56 0 71 -6q33 -13 33 -60v-37h371v82h-258v19q0 90 -111 90h-59z" />
<glyph unicode="&#xf70c;" d="M-584 911h97v47q0 53 32 56q5 -20 30 -36.5t56 -16.5t56.5 16.5t27.5 36.5q33 -3 33 -56v-47h68q34 6 62.5 22.5t49.5 41t33 54t12 61.5q0 22 -6 45h-102q14 -27 14 -68q0 -72 -33 -98q0 57 -37 92t-100 35q0 -26 -23.5 -44t-54.5 -18q-15 0 -29.5 5t-26 13t-18 19.5 t-6.5 24.5q-135 0 -135 -127v-58z" />
<glyph unicode="&#xf70d;" d="M-373 983h97v-72h108v72h96v72h-96v71h-108v-71h-97v-72z" />
<glyph unicode="&#xf70e;" d="M-301 911h108v31q0 55 82 55h74v82h-119q-145 0 -145 -114v-54z" />
<glyph unicode="&#xf70f;" horiz-adv-x="1157" d="M57 627l84 -58q-69 -26 -69 -106v-463h198l33 82h-125v393q0 81 82 103l-80 57q40 113 185 113q40 0 73.5 -12.5t57 -35t36.5 -54t13 -68.5v-363q0 -53 20 -94.5t56 -70.5t85.5 -44.5t108.5 -15.5t108.5 15.5t85 44.5t55 70.5t19.5 94.5v604h-108v-598q0 -149 -160 -149 q-35 0 -64.5 9.5t-51 28t-34 46.5t-12.5 65v365q0 55 -21 100t-58.5 76.5t-91 49t-117.5 17.5q-131 0 -215 -63q-74 -58 -93 -139z" />
<glyph unicode="&#xf710;" d="M-518 911h516v82h-408v84h-108v-166z" />
<glyph unicode="&#xf711;" d="M-412 1010q0 -23 8.5 -42.5t23.5 -34.5t35 -23.5t42 -8.5t41.5 8.5t34.5 23.5t23.5 34.5t8.5 42.5q0 22 -8.5 41.5t-23.5 34.5t-34.5 23.5t-41.5 8.5t-42 -8.5t-35 -23.5t-23.5 -34.5t-8.5 -41.5zM-350 1010q0 47 47 47t47 -47t-47 -47t-47 47z" />
<glyph unicode="&#xf712;" d="M-705 911h123q90 0 129 52q34 -52 101 -52h110l41 86h-121q-90 0 -131 56q-14 -19 -28 -30.5t-31 -16.5q-12 -5 -33.5 -7t-50.5 -2v27q0 61 94 61h154q135 0 135 109v47h-106v-29q0 -53 -76 -53h-121q-87 0 -138 -39.5t-51 -107.5v-101z" />
<glyph unicode="&#xf713;" d="M-352 1178h108v163h-108v-163z" />
<glyph unicode="&#xf714;" d="M-500 1270q51 0 66 -6q28 -11 28 -54v-32h295v73h-194v17q0 82 -98 82h-54z" />
<glyph unicode="&#xf715;" d="M-518 1178h86v43q0 46 31 49q1 -9 8 -17t18.5 -15t24.5 -11t26 -4t26 4t23.5 11t17 15t7.5 17q31 -3 31 -49v-43h61q31 4 57 18.5t45 36t29.5 49t10.5 57.5q0 11 -1 20.5t-3 18.5h-93q13 -26 13 -59q0 -68 -31 -90q0 114 -123 114q0 -11 -6 -21t-16 -17.5t-22.5 -12 t-25.5 -4.5q-73 0 -73 55q-121 0 -121 -114v-51z" />
<glyph unicode="&#xf716;" d="M-434 1243h88v-65h94v65h88v64h-88v65h-94v-65h-88v-64z" />
<glyph unicode="&#xf717;" d="M-420 1100h98v26q0 50 72 50h70v73h-107q-133 0 -133 -102v-47z" />
<glyph unicode="&#xf718;" d="M-268 -369v-92h88v-174h108v266h-196z" />
<glyph unicode="&#xf719;" d="M-500 -369v-92h66v-63q0 -63 63 -97q51 -26 121 -26q67 0 117 29q61 33 61 98v151h-108v-141q0 -59 -70 -59q-76 0 -76 59v141h-174z" />
<glyph unicode="&#xf71a;" d="M-195 -440q0 -29 21.5 -50.5t50.5 -21.5t50.5 21.5t21.5 50.5t-21.5 50t-50.5 21t-50.5 -21t-21.5 -50z" />
<glyph unicode="&#xf71b;" d="M-476 -1h476v1209h-476v-1209z" />
<glyph unicode="&#xf71c;" horiz-adv-x="532" />
<glyph unicode="&#xf71d;" horiz-adv-x="532" d="M47 0v-195h35v72q35 23 76 23h207q53 0 86 -27v-68h32v195h-436z" />
</font>
</defs>
</svg>
